{"glyphs":{"0":{"ha":1528,"x_min":69,"x_max":1458,"o":"m 785 -258 q 761 -278 774 -278 q 738 -258 749 -278 l 707 -196 q 675 -160 697 -176 q 631 -140 653 -143 l 563 -131 q 536 -110 536 -126 q 549 -86 536 -99 l 597 -37 q 622 4 614 -21 q 626 51 631 29 l 615 121 q 635 153 608 156 q 653 147 643 153 l 714 115 q 761 104 736 104 q 807 115 788 104 l 869 147 q 888 153 879 153 q 907 121 911 153 l 894 51 q 924 -37 888 -1 l 974 -86 q 986 -108 986 -99 q 960 -131 986 -126 l 890 -140 q 846 -159 867 -143 q 815 -196 825 -175 l 785 -258 m 1289 192 q 1267 204 1278 192 l 1218 254 q 1144 283 1189 283 q 1129 282 1133 283 l 1060 271 q 1028 292 1028 264 q 1030 300 1029 296 q 1033 308 1031 304 l 1065 369 q 1076 417 1076 389 q 1065 464 1076 442 l 1033 525 q 1028 544 1028 535 q 1060 563 1028 569 l 1129 551 q 1143 550 1133 550 q 1218 579 1189 550 l 1267 629 q 1290 642 1279 642 q 1311 615 1307 642 l 1321 546 q 1340 502 1324 525 q 1376 471 1357 479 l 1439 440 q 1458 417 1458 431 q 1439 393 1458 401 l 1376 363 q 1340 330 1357 353 q 1321 288 1324 307 l 1311 218 q 1294 193 1308 196 l 1289 192 m 261 207 q 239 194 250 194 q 217 221 221 194 l 207 290 q 188 334 204 311 q 151 365 171 357 l 89 396 q 69 419 69 407 q 89 443 69 432 l 151 474 q 188 506 171 483 q 207 550 204 528 l 217 618 q 238 644 221 644 q 261 632 249 644 l 310 583 q 351 558 326 567 q 399 554 376 550 l 468 565 q 500 547 500 572 q 494 528 500 538 l 463 467 q 453 419 453 447 q 463 372 453 390 l 494 311 q 500 294 497 308 q 468 274 503 267 l 399 285 q 385 286 394 286 q 310 257 339 286 l 261 207 m 764 207 l 556 415 l 764 624 l 972 415 l 764 207 m 910 713 q 889 681 917 678 q 872 686 875 683 l 810 718 q 764 728 792 728 q 717 718 736 728 l 656 686 q 638 681 646 681 q 618 713 611 681 l 629 782 q 631 794 631 786 q 600 871 631 840 l 551 919 q 539 943 539 932 q 565 964 539 960 l 633 974 q 678 993 656 976 q 710 1029 700 1010 l 740 1092 q 764 1111 751 1111 q 788 1092 776 1111 l 818 1029 q 850 993 828 1010 q 893 974 872 976 l 963 964 q 989 943 989 960 q 976 919 989 932 l 926 871 q 902 830 910 854 q 897 782 894 806 l 910 713 z "},"1":{"ha":1528,"x_min":69,"x_max":1458,"o":"m 788 -258 q 764 -278 776 -278 q 740 -258 751 -278 l 710 -196 q 678 -160 700 -175 q 635 -142 657 -144 l 567 -132 q 539 -110 539 -128 q 551 -87 539 -99 l 601 -39 q 626 2 618 -22 q 631 50 633 26 l 618 118 q 639 151 614 154 q 656 146 644 151 l 718 114 q 764 103 738 103 q 811 114 792 103 l 872 146 q 890 151 882 151 q 910 118 914 151 l 897 50 q 926 -39 890 -3 l 976 -87 q 989 -110 989 -99 q 961 -132 989 -128 l 893 -142 q 849 -160 871 -144 q 818 -196 828 -176 l 788 -258 m 1289 189 q 1268 201 1278 192 l 1219 251 q 1178 276 1203 268 q 1131 281 1154 283 l 1063 268 q 1029 289 1026 261 l 1035 306 l 1067 367 q 1078 414 1078 386 q 1067 460 1078 440 l 1035 521 q 1029 540 1029 531 q 1063 558 1029 565 l 1131 547 q 1143 546 1135 546 q 1219 576 1189 546 l 1268 625 q 1290 638 1281 638 q 1313 611 1308 638 l 1322 543 q 1341 499 1325 521 q 1376 468 1357 478 l 1439 438 q 1458 414 1458 428 q 1439 390 1458 399 l 1376 360 q 1340 328 1356 350 q 1322 285 1325 307 l 1313 217 q 1296 190 1308 194 l 1289 189 m 260 204 q 239 193 249 193 q 215 219 219 193 l 206 288 q 187 331 203 310 q 151 363 171 353 l 89 393 q 69 417 69 401 q 89 440 69 429 l 151 471 q 188 502 172 481 q 206 546 203 524 l 215 614 q 238 640 219 640 q 260 628 247 640 l 308 579 q 349 555 325 563 q 397 550 374 547 l 465 561 q 499 543 499 568 q 493 524 499 533 l 461 463 q 451 417 451 444 q 461 369 451 388 l 493 308 l 499 292 q 465 271 501 267 l 397 283 q 308 254 344 290 l 260 204 m 913 715 q 892 682 917 679 q 875 688 886 682 l 814 719 q 767 729 796 729 q 721 719 739 729 l 660 688 l 642 682 q 621 715 617 679 l 633 783 q 604 872 640 836 l 556 921 q 543 943 543 933 q 569 965 543 961 l 638 975 q 681 994 660 978 q 713 1029 703 1010 l 743 1092 q 767 1111 754 1111 q 790 1092 782 1111 l 821 1029 q 852 993 831 1008 q 896 975 874 978 l 964 965 q 992 943 992 961 q 979 921 992 932 l 929 872 q 905 831 913 856 q 900 783 897 807 l 913 715 z "},"2":{"ha":1528,"x_min":69,"x_max":1458,"o":"m 788 -258 q 764 -278 776 -278 q 740 -258 751 -278 l 710 -196 q 678 -160 700 -175 q 635 -142 657 -144 l 567 -132 q 539 -110 539 -128 q 551 -87 539 -99 l 601 -39 q 626 2 618 -22 q 631 50 633 26 l 618 118 q 639 151 614 154 q 656 146 644 151 l 718 114 q 764 103 738 103 q 811 114 792 103 l 872 146 q 890 151 882 151 q 910 118 914 151 l 897 50 q 926 -39 890 -3 l 976 -87 q 989 -110 989 -99 q 961 -132 989 -128 l 893 -142 q 849 -160 871 -144 q 818 -196 828 -176 l 788 -258 m 1218 79 q 1182 -10 1218 26 q 1093 -46 1146 -46 q 1004 -8 1040 -46 q 968 79 968 29 q 1004 168 968 132 q 1093 204 1040 204 q 1182 168 1146 204 q 1218 79 1218 132 m 554 86 q 517 -3 554 33 q 429 -39 479 -39 q 339 -3 375 -39 q 303 86 303 33 q 340 174 303 138 q 429 211 376 211 q 517 174 481 211 q 554 86 554 138 m 1289 189 q 1268 201 1278 192 l 1219 251 q 1178 276 1203 268 q 1131 281 1154 283 l 1063 268 q 1029 289 1026 261 l 1035 306 l 1067 367 q 1078 414 1078 386 q 1067 460 1078 440 l 1035 521 q 1029 540 1029 531 q 1063 558 1029 565 l 1131 547 q 1143 546 1135 546 q 1219 576 1189 546 l 1268 625 q 1290 638 1281 638 q 1313 611 1308 638 l 1322 543 q 1341 499 1325 521 q 1376 468 1357 478 l 1439 438 q 1458 414 1458 428 q 1439 390 1458 399 l 1376 360 q 1340 328 1356 350 q 1322 285 1325 307 l 1313 217 q 1296 190 1308 194 l 1289 189 m 260 204 q 239 193 249 193 q 215 219 219 193 l 206 288 q 187 331 203 310 q 151 363 171 353 l 89 393 q 69 417 69 401 q 89 440 69 429 l 151 471 q 188 502 172 481 q 206 546 203 524 l 215 614 q 238 640 219 640 q 260 628 247 640 l 308 579 q 349 555 325 563 q 397 550 374 547 l 465 561 q 499 543 499 568 q 493 524 499 533 l 461 463 q 451 417 451 444 q 461 369 451 388 l 493 308 l 499 292 q 465 271 501 267 l 397 283 q 308 254 344 290 l 260 204 m 1215 747 q 1178 658 1215 694 q 1090 622 1140 622 q 1001 658 1038 622 q 965 747 965 694 q 1001 836 965 800 q 1090 872 1038 872 q 1179 836 1143 872 q 1215 747 1215 800 m 560 750 q 524 661 560 697 q 435 625 488 625 q 346 663 382 625 q 310 750 310 700 q 346 839 310 803 q 435 875 382 875 q 524 839 488 875 q 560 750 560 803 m 913 715 q 892 682 917 679 q 875 688 886 682 l 814 719 q 767 729 796 729 q 721 719 739 729 l 660 688 l 642 682 q 621 715 617 679 l 633 783 q 604 872 640 836 l 556 921 q 543 943 543 933 q 569 965 543 961 l 638 975 q 681 994 660 978 q 713 1029 703 1010 l 743 1092 q 767 1111 754 1111 q 790 1092 782 1111 l 821 1029 q 852 993 831 1008 q 896 975 874 978 l 964 965 q 992 943 992 961 q 979 921 992 932 l 929 872 q 905 831 913 856 q 900 783 897 807 l 913 715 z "},"3":{"ha":1528,"x_min":69,"x_max":1458,"o":"m 788 -258 q 764 -278 776 -278 q 740 -258 751 -278 l 710 -196 q 678 -160 700 -175 q 635 -142 657 -144 l 567 -132 q 539 -110 539 -128 q 551 -87 539 -99 l 601 -39 q 626 2 618 -22 q 631 50 633 26 l 618 118 q 639 151 614 154 q 656 146 644 151 l 718 114 q 764 103 738 103 q 811 114 792 103 l 872 146 q 890 151 882 151 q 910 118 914 151 l 897 50 q 926 -39 890 -3 l 976 -87 q 989 -110 989 -99 q 961 -132 989 -128 l 893 -142 q 849 -160 871 -144 q 818 -196 828 -176 l 788 -258 m 1289 189 q 1268 201 1278 192 l 1219 251 q 1178 276 1203 268 q 1131 281 1154 283 l 1063 268 q 1029 289 1026 261 l 1035 306 l 1067 367 q 1078 414 1078 386 q 1067 460 1078 440 l 1035 521 q 1029 540 1029 531 q 1063 558 1029 565 l 1131 547 q 1143 546 1135 546 q 1219 576 1189 546 l 1268 625 q 1290 638 1281 638 q 1313 611 1308 638 l 1322 543 q 1341 499 1325 521 q 1376 468 1357 478 l 1439 438 q 1458 414 1458 428 q 1439 390 1458 399 l 1376 360 q 1340 328 1356 350 q 1322 285 1325 307 l 1313 217 q 1296 190 1308 194 l 1289 189 m 260 204 q 239 193 249 193 q 215 219 219 193 l 206 288 q 187 331 203 310 q 151 363 171 353 l 89 393 q 69 417 69 401 q 89 440 69 429 l 151 471 q 188 502 172 481 q 206 546 203 524 l 215 614 q 238 640 219 640 q 260 628 247 640 l 308 579 q 349 555 325 563 q 397 550 374 547 l 465 561 q 499 543 499 568 q 493 524 499 533 l 461 463 q 451 417 451 444 q 461 369 451 388 l 493 308 l 499 292 q 465 271 501 267 l 397 283 q 308 254 344 290 l 260 204 m 953 413 q 899 281 953 335 q 767 226 844 226 q 635 281 689 226 q 581 413 581 335 q 635 544 581 490 q 767 599 689 599 q 899 544 844 599 q 953 413 953 490 m 913 715 q 892 682 917 679 q 875 688 886 682 l 814 719 q 767 729 796 729 q 721 719 739 729 l 660 688 l 642 682 q 621 715 617 679 l 633 783 q 604 872 640 836 l 556 921 q 543 943 543 933 q 569 965 543 961 l 638 975 q 681 994 660 978 q 713 1029 703 1010 l 743 1092 q 767 1111 754 1111 q 790 1092 782 1111 l 821 1029 q 852 993 831 1008 q 896 975 874 978 l 964 965 q 992 943 992 961 q 979 921 992 932 l 929 872 q 905 831 913 856 q 900 783 897 807 l 913 715 z "},"4":{"ha":1528,"x_min":69,"x_max":1458,"o":"m 932 -240 q 908 -278 939 -278 q 889 -271 900 -278 l 818 -235 q 764 -222 794 -222 q 710 -235 733 -222 l 639 -271 q 619 -278 628 -278 q 596 -240 589 -278 l 610 -161 q 611 -149 611 -157 q 576 -58 611 -93 l 519 -3 q 506 24 506 11 q 536 49 506 44 l 615 60 q 667 82 643 64 q 701 124 690 100 l 738 196 q 764 218 749 218 q 790 196 779 218 l 826 124 q 863 82 838 100 q 913 60 888 64 l 992 49 q 1022 24 1022 44 q 1008 -3 1022 11 l 951 -58 q 926 -98 936 -74 q 917 -146 917 -122 q 918 -161 917 -156 l 932 -240 m 1183 168 q 1158 154 1169 154 l 1150 156 q 1132 185 1136 160 l 1121 264 q 1099 315 1117 292 q 1057 351 1081 339 l 985 386 q 963 413 963 397 q 985 440 963 426 l 1057 475 q 1099 512 1081 486 q 1121 563 1117 538 l 1132 642 q 1157 672 1136 672 q 1183 658 1169 672 l 1239 600 q 1324 567 1272 567 q 1342 568 1336 567 l 1421 581 q 1458 560 1458 588 q 1451 538 1458 551 l 1415 467 q 1403 413 1403 443 q 1415 360 1403 381 l 1451 289 q 1458 268 1458 278 q 1421 246 1458 239 l 1342 258 q 1328 260 1338 260 q 1278 250 1304 260 q 1239 225 1253 240 l 1183 168 m 396 189 q 369 158 392 156 q 344 172 357 158 l 289 229 q 249 254 274 244 q 201 264 225 264 q 186 263 192 264 l 107 249 q 69 272 69 242 q 76 292 69 281 l 113 363 q 125 417 125 383 q 113 471 125 447 l 76 540 q 69 564 69 554 q 107 585 69 592 l 186 571 q 199 569 190 569 q 289 604 254 569 l 344 661 q 371 675 358 675 q 396 644 392 675 l 407 565 q 429 514 411 538 q 471 479 447 490 l 543 443 q 565 417 565 433 q 543 389 565 399 l 471 354 q 429 317 447 343 q 407 267 411 292 l 396 189 m 794 638 q 767 615 781 615 q 740 638 751 615 l 706 710 q 669 751 694 733 q 618 774 643 769 l 539 785 q 508 810 508 789 q 522 836 508 822 l 579 892 q 614 979 614 924 q 613 994 614 989 l 600 1074 q 622 1111 593 1111 q 643 1104 632 1111 l 714 1068 q 768 1056 738 1056 q 821 1068 800 1056 l 892 1104 q 911 1111 903 1111 q 935 1074 942 1111 l 922 994 q 921 978 921 989 q 954 892 921 925 l 1013 836 q 1026 810 1026 822 q 996 785 1026 789 l 917 774 q 865 751 889 769 q 829 710 842 733 l 794 638 z "},"5":{"ha":1528,"x_min":69,"x_max":1458,"o":"m 560 -278 l 599 -72 l 433 72 l 661 103 l 764 289 l 867 103 l 1094 72 l 929 -72 l 968 -278 l 764 -181 l 560 -278 m 419 88 l 275 253 l 69 214 l 167 418 l 69 622 l 275 583 l 419 749 l 450 521 l 636 418 l 450 317 l 419 88 m 1108 88 l 1078 317 l 892 418 l 1078 521 l 1108 750 l 1253 583 l 1458 624 l 1361 418 l 1458 214 l 1253 253 l 1108 88 m 764 544 l 661 731 l 433 761 l 599 906 l 560 1111 l 764 1014 l 968 1111 l 929 906 l 1094 761 l 865 731 l 764 544 z "},"6":{"ha":1528,"x_min":69,"x_max":1458,"o":"m 793 -254 q 767 -278 782 -278 q 739 -254 751 -278 l 704 -181 q 667 -137 692 -156 q 615 -115 643 -119 l 539 -104 q 507 -78 507 -100 q 521 -50 507 -64 l 578 6 q 613 96 613 43 q 611 111 613 106 l 597 193 q 622 232 590 232 l 642 225 l 711 188 q 767 175 735 175 q 821 188 797 175 l 890 225 q 913 232 904 232 q 931 222 925 232 q 935 193 938 211 l 921 111 q 919 97 919 107 q 956 6 919 42 l 1011 -50 q 1025 -78 1025 -64 q 994 -104 1025 -100 l 918 -115 q 866 -138 892 -119 q 829 -181 840 -157 l 793 -254 m 682 1 q 707 -57 682 -33 q 765 -81 732 -81 q 823 -56 799 -81 q 847 1 847 -32 q 823 60 847 36 q 765 85 799 85 q 706 60 731 85 q 682 1 682 36 m 297 169 q 271 156 281 156 q 243 188 247 156 l 232 264 q 209 315 228 290 q 167 353 190 340 l 93 388 q 69 415 69 399 q 93 442 69 431 l 167 478 q 210 515 192 490 q 232 567 228 539 l 243 643 q 269 675 247 675 q 297 661 283 675 l 353 604 q 393 579 368 589 q 440 569 418 569 q 458 571 453 569 l 540 583 q 579 563 579 590 q 572 539 579 553 l 535 471 q 522 415 522 447 q 535 360 522 383 l 572 292 l 579 271 q 569 250 579 257 q 540 247 558 243 l 458 260 q 446 261 454 260 q 353 226 390 261 l 297 169 m 1285 188 q 1265 157 1281 161 q 1231 169 1249 151 l 1175 226 q 1085 261 1138 261 q 1069 260 1075 261 l 988 247 q 949 271 949 239 q 956 292 949 278 l 993 360 q 1006 415 1006 383 q 993 471 1006 447 l 956 539 q 949 561 949 553 q 959 580 949 574 q 988 583 969 586 l 1069 571 q 1085 569 1075 569 q 1175 604 1140 569 l 1231 661 q 1258 675 1244 675 q 1285 643 1281 675 l 1296 567 q 1319 515 1300 540 q 1361 478 1338 490 l 1435 442 q 1458 415 1458 432 q 1435 388 1458 397 l 1361 353 q 1318 316 1336 340 q 1296 264 1300 292 l 1285 188 m 267 414 q 291 355 267 379 q 349 331 315 331 q 408 355 383 331 q 432 414 432 379 q 407 472 432 449 q 349 496 382 496 q 290 472 314 496 q 267 414 267 449 m 1096 414 q 1120 355 1096 379 q 1179 331 1144 331 q 1238 356 1214 331 q 1261 414 1261 381 q 1237 472 1261 447 q 1179 496 1213 496 q 1119 472 1143 496 q 1096 414 1096 449 m 622 601 q 597 640 590 601 l 611 722 q 613 735 613 726 q 578 828 613 790 l 521 883 q 507 911 507 897 q 539 938 507 933 l 615 949 q 667 972 640 953 q 704 1014 693 992 l 739 1088 q 767 1111 751 1111 q 793 1088 782 1111 l 829 1014 q 866 972 840 990 q 918 949 892 953 l 994 938 q 1025 911 1025 933 q 1011 883 1025 897 l 956 828 q 919 738 919 792 q 921 722 919 728 l 935 640 q 914 601 942 601 q 890 608 904 601 l 821 646 q 767 658 797 658 q 711 646 735 658 l 642 608 l 622 601 m 682 832 q 706 773 682 797 q 765 749 731 749 q 824 774 800 749 q 847 832 847 799 q 823 890 847 865 q 765 914 799 914 q 706 890 731 914 q 682 832 682 865 z "},"7":{"ha":1528,"x_min":69,"x_max":1458,"o":"m 793 -254 q 767 -278 782 -278 q 739 -254 751 -278 l 704 -181 q 667 -137 692 -156 q 615 -115 643 -119 l 539 -104 q 507 -78 507 -100 q 521 -50 507 -64 l 578 6 q 613 96 613 43 q 611 111 613 106 l 597 193 q 622 232 590 232 l 642 225 l 711 188 q 767 175 735 175 q 821 188 797 175 l 890 225 q 913 232 904 232 q 931 222 925 232 q 935 193 938 211 l 921 111 q 919 97 919 107 q 956 6 919 42 l 1011 -50 q 1025 -78 1025 -64 q 994 -104 1025 -100 l 918 -115 q 866 -138 892 -119 q 829 -181 840 -157 l 793 -254 m 682 1 q 707 -57 682 -33 q 765 -81 732 -81 q 823 -56 799 -81 q 847 1 847 -32 q 823 60 847 36 q 765 85 799 85 q 706 60 731 85 q 682 1 682 36 m 1257 156 q 1231 169 1247 156 l 1175 226 q 1085 261 1138 261 q 1069 260 1075 261 l 988 247 q 949 271 949 239 q 956 292 949 278 l 993 360 q 1006 415 1006 383 q 993 471 1006 447 l 956 539 q 949 561 949 553 q 959 580 949 574 q 988 583 969 586 l 1069 571 q 1085 569 1075 569 q 1175 604 1140 569 l 1231 661 q 1258 675 1244 675 q 1285 643 1281 675 l 1296 567 q 1319 515 1300 540 q 1361 478 1338 490 l 1435 442 q 1458 415 1458 432 q 1435 388 1458 397 l 1361 353 q 1318 316 1336 340 q 1296 264 1300 292 l 1285 188 q 1265 157 1281 161 l 1257 156 m 297 169 q 271 156 281 156 q 243 188 247 156 l 232 264 q 209 315 228 290 q 167 353 190 340 l 93 388 q 69 415 69 399 q 93 442 69 431 l 167 478 q 210 515 192 490 q 232 567 228 539 l 243 643 q 269 675 247 675 q 297 661 283 675 l 353 604 q 393 579 368 589 q 440 569 418 569 q 458 571 453 569 l 540 583 q 579 563 579 590 q 572 539 579 553 l 535 471 q 522 415 522 447 q 535 360 522 383 l 572 292 l 579 271 q 569 250 579 257 q 540 247 558 243 l 458 260 q 446 261 454 260 q 353 226 390 261 l 297 169 m 657 303 l 657 522 l 881 522 l 881 303 l 657 303 m 267 414 q 291 355 267 379 q 349 331 315 331 q 408 355 383 331 q 432 414 432 379 q 407 472 432 449 q 349 496 382 496 q 290 472 314 496 q 267 414 267 449 m 1096 414 q 1120 355 1096 379 q 1179 331 1144 331 q 1238 356 1214 331 q 1261 414 1261 381 q 1237 472 1261 447 q 1179 496 1213 496 q 1119 472 1143 496 q 1096 414 1096 449 m 622 601 q 597 640 590 601 l 611 722 q 613 735 613 726 q 578 828 613 790 l 521 883 q 507 911 507 897 q 539 938 507 933 l 615 949 q 667 972 640 953 q 704 1014 693 992 l 739 1088 q 767 1111 751 1111 q 793 1088 782 1111 l 829 1014 q 866 972 840 990 q 918 949 892 953 l 994 938 q 1025 911 1025 933 q 1011 883 1025 897 l 956 828 q 919 738 919 792 q 921 722 919 728 l 935 640 q 914 601 942 601 q 890 608 904 601 l 821 646 q 767 658 797 658 q 711 646 735 658 l 642 608 l 622 601 m 682 832 q 706 773 682 797 q 765 749 731 749 q 824 774 800 749 q 847 832 847 799 q 823 890 847 865 q 765 914 799 914 q 706 890 731 914 q 682 832 682 865 z "},"8":{"ha":1557,"x_min":71,"x_max":1486,"o":"m 1136 -254 q 1096 -278 1118 -281 q 1065 -242 1076 -274 l 1035 -137 q 997 -74 1025 -104 q 935 -33 968 -44 l 832 1 q 797 36 797 11 q 822 74 797 54 l 911 133 q 959 191 938 153 q 981 263 981 229 l 981 369 q 1011 415 981 415 q 1046 401 1028 415 l 1131 336 q 1177 313 1149 321 q 1232 304 1206 304 q 1274 310 1257 304 l 1376 343 q 1399 347 1389 347 q 1431 315 1431 347 q 1426 290 1431 306 l 1390 189 q 1383 140 1383 171 q 1390 88 1383 115 q 1410 44 1397 61 l 1474 -43 q 1486 -75 1486 -62 q 1439 -107 1486 -107 l 1331 -103 q 1258 -121 1296 -103 q 1200 -167 1221 -139 l 1136 -254 m 492 -235 q 461 -271 483 -267 q 421 -247 440 -275 l 357 -161 q 299 -116 338 -135 q 226 -97 260 -97 l 118 -101 q 71 -69 71 -101 q 83 -37 71 -57 l 146 51 q 174 149 174 90 q 167 194 174 176 l 129 296 q 124 321 124 315 q 156 353 124 353 q 179 349 167 353 l 282 317 q 322 311 299 311 q 425 342 383 311 l 510 408 q 543 422 528 422 q 575 376 575 422 l 576 268 q 596 196 576 232 q 644 140 615 160 l 735 81 q 760 44 760 61 q 725 8 760 21 l 622 -26 q 560 -67 589 -37 q 522 -131 532 -97 l 492 -235 m 610 451 q 583 443 594 443 q 550 479 550 443 q 550 485 550 481 q 551 494 550 490 l 569 600 q 571 619 571 607 q 558 685 571 653 q 525 739 546 718 l 447 814 q 428 850 428 833 q 469 883 428 876 l 576 899 q 645 928 611 904 q 694 983 679 953 l 742 1081 q 778 1111 760 1111 q 814 1081 799 1111 l 863 983 q 911 928 876 953 q 979 899 946 904 l 1086 883 q 1128 850 1128 876 q 1108 814 1128 832 l 1032 739 q 998 685 1011 719 q 985 619 985 651 q 986 600 985 607 l 1004 494 q 1006 481 1006 489 q 975 443 1006 443 q 946 451 963 443 l 850 501 q 778 517 819 517 q 706 501 739 517 l 610 451 z "},"9":{"ha":1582,"x_min":72,"x_max":1510,"o":"m 1510 417 q 1299 -74 1510 129 q 792 -278 1089 -278 q 283 -74 493 -278 q 72 417 72 129 q 283 908 72 704 q 792 1111 493 1111 q 1299 908 1089 1111 q 1510 417 1510 704 m 603 -221 l 792 -132 l 979 -221 l 943 -32 l 1094 100 l 885 128 l 792 299 l 697 128 l 488 100 l 639 -32 l 603 -221 m 475 114 l 503 325 l 674 418 l 503 513 l 475 722 l 342 569 l 154 606 l 243 418 l 154 231 l 342 267 l 475 114 m 1107 115 l 1240 267 l 1428 231 l 1340 418 l 1428 606 l 1240 571 l 1107 722 l 1079 513 l 908 418 l 1079 325 l 1107 115 m 790 535 l 885 706 l 1094 733 l 943 865 l 979 1054 l 790 965 l 603 1054 l 639 865 l 488 733 l 697 706 l 790 535 z "}," ":{"ha":694,"x_min":0,"x_max":0,"o":""},"A":{"ha":1638,"x_min":75,"x_max":1563,"o":"m 1563 -281 l 75 -281 l 75 1108 l 1563 1108 l 1563 -281 m 1386 338 l 1201 479 q 1143 553 1164 507 q 1122 650 1122 600 q 1131 703 1122 678 l 1197 915 q 1204 957 1204 943 q 1182 993 1204 993 q 1154 988 1168 993 q 1122 971 1140 983 l 929 839 q 813 806 881 806 q 694 840 743 806 l 514 969 q 460 993 479 993 q 431 954 431 993 q 438 914 431 939 l 504 692 q 510 667 508 675 q 511 640 511 658 q 489 544 511 592 q 431 468 467 496 l 251 336 q 211 281 211 306 q 279 247 211 247 l 513 242 q 627 201 572 242 q 701 101 682 160 l 772 -108 q 819 -165 792 -165 q 865 -110 846 -165 l 943 111 q 1019 208 964 168 q 1135 247 1074 247 l 1357 250 q 1426 283 1426 250 q 1386 338 1426 308 z "},"B":{"ha":1635,"x_min":75,"x_max":1561,"o":"m 1521 344 q 1561 271 1561 304 q 1475 203 1561 214 l 1242 169 q 1100 108 1171 158 q 996 -7 1029 57 l 894 -210 q 818 -272 863 -272 q 740 -210 774 -272 l 639 -7 q 536 108 607 57 q 394 169 465 158 l 160 203 q 75 271 75 213 q 114 344 75 306 l 282 503 q 353 612 326 544 q 379 746 379 679 q 375 788 379 767 l 336 1010 q 333 1042 333 1032 q 401 1117 333 1117 q 426 1113 414 1117 q 458 1100 439 1108 l 667 992 q 818 960 731 960 q 968 992 904 960 l 1176 1100 q 1238 1117 1210 1117 q 1301 1040 1301 1117 q 1301 1026 1301 1033 q 1299 1010 1299 1015 l 1260 788 q 1256 744 1256 767 q 1282 613 1256 679 q 1353 503 1308 546 l 1521 344 m 1264 372 l 1158 474 q 1114 544 1131 500 q 1097 631 1097 588 q 1099 656 1097 647 l 1124 796 q 1125 814 1125 803 q 1085 864 1125 864 q 1046 853 1068 864 l 914 785 q 818 764 874 764 q 721 785 763 764 l 589 853 q 553 864 574 861 q 510 813 510 864 q 511 796 510 801 l 536 656 q 539 628 539 636 q 522 543 539 585 q 476 474 506 501 l 371 372 q 346 325 346 347 q 400 282 346 290 l 549 261 q 638 222 592 256 q 704 150 683 189 l 769 21 q 818 -19 790 -19 q 867 21 846 -19 l 931 150 q 996 222 951 190 q 1086 261 1040 254 l 1236 282 q 1289 325 1289 290 q 1264 372 1289 347 z "},"C":{"ha":1578,"x_min":72,"x_max":1506,"o":"m 1506 261 l 874 64 l 789 -269 l 408 281 l 72 261 l 468 799 l 346 1119 l 971 901 l 1232 1119 l 1221 447 l 1506 261 m 1156 617 l 836 717 l 793 885 l 600 606 l 429 617 l 631 343 l 568 181 l 885 292 l 1017 181 l 1011 522 l 1156 617 z "},"D":{"ha":1543,"x_min":71,"x_max":1474,"o":"m 1464 376 q 1474 315 1474 349 q 1385 128 1474 194 l 900 -233 q 841 -262 875 -251 q 772 -272 807 -272 q 703 -264 733 -272 q 643 -233 672 -256 l 158 128 q 71 317 71 192 q 79 376 71 347 l 265 964 q 345 1072 285 1028 q 474 1117 406 1117 l 1069 1117 q 1197 1072 1136 1117 q 1278 964 1258 1028 l 1464 376 m 1313 346 l 1186 471 q 1130 561 1151 506 q 1108 674 1108 617 q 1108 689 1108 681 q 1111 706 1111 700 l 1142 885 q 1144 910 1144 901 q 1093 971 1144 971 q 1043 956 1069 971 l 889 874 q 768 846 838 846 q 646 874 697 846 l 492 956 q 446 971 469 968 q 390 910 390 971 q 393 885 390 901 l 424 706 q 426 672 426 683 q 405 561 426 617 q 349 471 383 506 l 222 346 q 190 285 190 314 q 261 226 190 238 l 432 201 q 547 151 489 193 q 629 57 604 110 l 707 -107 q 768 -158 732 -158 q 828 -107 803 -158 l 906 57 q 988 151 931 108 q 1103 201 1046 193 l 1274 226 q 1344 286 1344 238 q 1313 346 1344 314 z "},"E":{"ha":1578,"x_min":72,"x_max":1506,"o":"m 1506 589 l 1221 403 l 1232 -269 l 971 -51 l 346 -269 l 468 51 l 72 589 l 408 569 l 789 1119 l 874 786 l 1506 589 m 1140 221 l 965 393 l 1006 636 l 789 521 l 571 636 l 613 393 l 438 221 l 681 186 l 789 -35 l 897 186 l 1140 221 z "},"F":{"ha":1578,"x_min":72,"x_max":1506,"o":"m 1506 253 l 874 56 l 789 -278 l 408 272 l 72 253 l 468 790 l 346 1111 l 971 893 l 1232 1111 l 1221 439 l 1506 253 m 1140 379 l 965 551 l 1006 794 l 789 679 l 571 794 l 613 551 l 438 379 l 681 344 l 789 124 l 897 344 l 1140 379 z "},"G":{"ha":1557,"x_min":71,"x_max":1486,"o":"m 1447 336 q 1486 261 1486 297 q 1464 216 1486 235 q 1399 190 1442 197 l 1190 160 q 1050 97 1121 149 q 949 -19 979 44 l 851 -219 q 778 -283 822 -283 q 704 -219 735 -283 l 608 -19 q 508 97 578 44 q 365 160 438 149 l 157 190 q 93 215 115 196 q 71 261 71 233 q 110 336 71 297 l 263 490 q 332 602 306 533 q 358 738 358 671 l 358 753 q 356 778 358 761 l 318 1000 q 315 1029 315 1022 q 385 1106 315 1106 q 440 1088 407 1106 l 628 986 q 778 953 690 953 q 928 986 867 953 l 1117 1088 q 1178 1106 1151 1106 q 1240 1029 1240 1106 q 1238 1000 1240 1019 l 1201 778 q 1197 733 1197 757 q 1224 601 1197 668 q 1293 490 1250 533 l 1447 336 m 999 479 q 933 639 999 574 q 774 704 868 704 q 614 639 679 704 q 549 479 549 574 q 614 319 549 385 q 774 254 679 254 q 933 319 868 254 q 999 479 999 385 z "},"H":{"ha":1492,"x_min":68,"x_max":1424,"o":"m 1375 321 q 1424 258 1424 285 q 1342 224 1424 224 l 1089 231 q 952 184 1017 231 q 869 69 888 138 l 792 -211 q 746 -281 774 -281 q 700 -211 718 -281 l 622 69 q 540 185 603 139 q 404 231 478 231 l 150 224 q 90 233 111 224 q 68 258 68 243 q 117 321 68 285 l 332 479 q 402 565 376 511 q 428 678 428 618 q 417 744 428 711 l 325 1021 q 315 1075 315 1051 q 339 1108 315 1108 q 404 1075 363 1108 l 613 904 q 746 858 669 858 q 879 904 825 858 l 1088 1075 q 1153 1108 1129 1108 q 1176 1074 1176 1108 q 1167 1021 1176 1050 l 1075 744 q 1064 678 1064 711 q 1090 566 1064 619 q 1160 479 1115 513 l 1375 321 m 1069 381 l 957 463 q 921 508 935 478 q 907 567 907 538 q 913 601 907 586 l 961 744 q 967 772 967 760 q 954 789 967 789 q 919 772 940 789 l 811 683 q 742 660 783 660 q 672 683 700 660 l 564 772 q 539 788 549 786 q 518 772 518 796 q 524 744 518 760 l 571 601 q 576 567 576 586 q 526 463 576 499 l 414 381 q 389 347 389 361 q 432 329 389 329 l 564 333 q 635 310 603 333 q 678 249 667 286 l 718 103 q 742 67 729 67 q 765 103 757 67 l 806 249 q 849 310 817 286 q 919 333 881 333 l 1051 329 q 1094 349 1094 329 q 1069 381 1094 361 z "},"I":{"ha":1554,"x_min":71,"x_max":1483,"o":"m 1483 578 l 1214 -281 l 340 -281 l 71 578 l 776 1108 l 1483 578 m 1249 243 l 1140 351 q 1092 429 1111 379 q 1072 525 1072 479 q 1075 554 1072 535 l 1101 710 q 1103 731 1103 717 q 1058 785 1103 785 q 1015 772 1039 785 l 882 700 q 776 676 840 676 q 720 682 749 676 q 671 700 692 688 l 539 772 q 499 785 517 782 q 451 729 451 785 q 453 710 451 717 l 479 554 q 481 528 481 546 q 462 431 481 481 q 414 351 443 381 l 306 243 q 278 190 278 215 q 339 140 278 149 l 486 118 q 585 74 535 111 q 657 -8 635 36 l 725 -149 q 776 -193 746 -193 q 829 -149 808 -193 l 897 -8 q 968 74 918 36 q 1068 118 1018 111 l 1215 140 q 1276 190 1276 149 q 1249 243 1276 215 z "},"J":{"ha":1676,"x_min":76,"x_max":1601,"o":"m 1568 278 l 1324 -139 q 1220 -237 1290 -197 q 1083 -278 1150 -278 l 594 -278 q 456 -237 526 -278 q 353 -139 386 -197 l 110 278 q 76 417 76 335 q 110 556 76 497 l 353 972 q 456 1071 386 1031 q 594 1111 526 1111 l 1083 1111 q 1220 1071 1150 1111 q 1324 972 1290 1031 l 1568 556 q 1601 417 1601 497 q 1568 278 1601 335 m 1339 322 l 1226 435 q 1175 517 1194 467 q 1156 617 1156 567 q 1156 631 1156 624 q 1158 644 1158 640 l 1186 806 q 1188 828 1188 814 q 1142 883 1188 883 q 1097 869 1121 883 l 958 796 q 850 771 914 771 q 740 796 786 771 l 603 869 q 561 883 582 881 q 513 828 513 883 q 514 806 513 814 l 540 644 q 543 611 543 622 q 525 515 543 563 q 474 435 507 468 l 361 322 q 333 268 333 294 q 396 215 333 226 l 549 193 q 652 149 601 186 q 725 63 703 111 l 796 -83 q 850 -129 819 -129 q 904 -83 881 -129 l 974 63 q 1048 148 997 110 q 1150 193 1099 186 l 1303 215 q 1367 268 1367 226 q 1339 322 1367 292 z "},"K":{"ha":1557,"x_min":71,"x_max":1486,"o":"m 1486 253 l 997 179 l 778 -278 l 560 179 l 71 253 l 425 608 l 342 1111 l 778 874 l 1215 1111 l 1132 608 l 1486 253 m 1050 560 l 860 589 l 775 767 l 689 589 l 499 560 l 636 421 l 604 225 l 775 318 l 944 225 l 913 421 l 1050 560 z "},"L":{"ha":1528,"x_min":69,"x_max":1458,"o":"m 1458 425 q 1255 -66 1458 138 q 764 -269 1051 -269 q 273 -66 476 -269 q 69 425 69 138 q 273 916 69 713 q 764 1119 476 1119 q 1255 916 1051 1119 q 1458 425 1458 713 m 1236 326 l 1125 435 q 1058 604 1058 501 q 1058 618 1058 611 q 1061 632 1061 628 l 1088 785 q 1089 806 1089 792 q 1046 857 1089 857 q 1004 844 1028 857 l 868 774 q 764 750 824 750 q 660 774 704 750 l 524 844 q 486 857 503 857 q 439 804 439 857 q 440 785 439 792 l 467 632 q 469 603 469 613 q 451 510 469 557 q 403 435 432 464 l 292 326 q 265 276 265 300 q 325 228 265 236 l 476 206 q 574 164 525 199 q 644 83 622 129 l 713 -54 q 764 -99 733 -99 q 815 -54 794 -99 l 883 83 q 954 163 904 126 q 1051 206 1004 200 l 1203 228 q 1263 276 1263 236 q 1236 326 1263 301 m 913 432 q 869 326 913 369 q 764 282 825 282 q 658 325 701 282 q 615 432 615 368 q 658 538 615 494 q 764 581 701 581 q 869 538 826 581 q 913 432 913 494 z "},"M":{"ha":1635,"x_min":75,"x_max":1561,"o":"m 1521 336 q 1561 263 1561 296 q 1475 194 1561 206 l 1242 161 q 1100 99 1171 150 q 996 -15 1029 49 l 894 -218 q 818 -281 863 -281 q 740 -218 774 -281 l 639 -15 q 536 99 607 49 q 394 161 465 150 l 160 194 q 75 263 75 204 q 114 336 75 297 l 282 494 q 353 603 326 536 q 379 738 379 671 q 375 779 379 758 l 336 1001 q 333 1033 333 1024 q 401 1108 333 1108 q 426 1104 414 1108 q 458 1092 439 1100 l 667 983 q 818 951 731 951 q 968 983 904 951 l 1176 1092 q 1238 1108 1210 1108 q 1301 1032 1301 1108 q 1301 1018 1301 1025 q 1299 1001 1299 1007 l 1260 779 q 1256 736 1256 758 q 1282 604 1256 671 q 1353 494 1308 538 l 1521 336 m 1264 364 l 1158 465 q 1114 535 1131 492 q 1097 622 1097 579 q 1099 647 1097 639 l 1124 788 q 1125 806 1125 794 q 1085 856 1125 856 q 1046 844 1068 856 l 914 776 q 818 756 874 756 q 721 776 763 756 l 589 844 q 553 856 574 853 q 510 804 510 856 q 511 788 510 793 l 536 647 q 539 619 539 628 q 522 535 539 576 q 476 465 506 493 l 371 364 q 346 317 346 339 q 400 274 346 282 l 549 253 q 638 214 592 247 q 704 142 683 181 l 769 13 q 818 -28 790 -28 q 867 13 846 -28 l 931 142 q 996 214 951 182 q 1086 253 1040 246 l 1236 274 q 1289 317 1289 282 q 1264 364 1289 339 m 1149 346 l 919 317 l 818 126 l 715 317 l 486 346 l 651 494 l 613 701 l 818 604 l 1022 701 l 983 494 l 1149 346 z "},"N":{"ha":1722,"x_min":78,"x_max":1644,"o":"m 1644 10 q 1560 -196 1644 -111 q 1354 -281 1475 -281 l 369 -281 q 163 -195 249 -281 q 78 10 78 -110 l 78 818 q 163 1024 78 939 q 369 1108 247 1108 l 1354 1108 q 1560 1024 1475 1108 q 1644 818 1644 939 l 1644 10 m 1461 333 l 1265 483 q 1205 562 1228 513 q 1182 664 1182 611 q 1190 719 1182 692 l 1261 944 q 1269 989 1269 972 q 1244 1026 1269 1022 q 1182 1003 1219 1029 l 979 863 q 854 828 928 828 q 788 836 819 828 q 731 864 757 844 l 539 1000 q 481 1025 503 1025 q 451 986 451 1025 q 458 943 451 971 l 529 707 q 535 675 533 694 q 536 653 536 656 q 514 550 536 599 q 450 471 492 501 l 261 332 q 219 274 219 300 q 292 238 219 238 l 538 232 q 660 189 603 232 q 738 83 717 146 l 813 -139 q 861 -199 833 -199 q 911 -139 890 -199 l 993 93 q 1074 194 1014 151 q 1196 238 1133 238 l 1431 240 q 1484 249 1465 240 q 1503 275 1503 258 q 1461 333 1503 300 z "},"O":{"ha":1517,"x_min":69,"x_max":1449,"o":"m 1449 258 l 972 185 l 758 -272 l 546 185 l 69 258 l 414 614 l 332 1117 l 758 879 l 1185 1117 l 1103 614 l 1449 258 m 1242 325 l 1001 572 l 1058 922 l 761 757 l 464 922 l 521 572 l 281 325 l 613 274 l 761 -46 l 910 274 l 1242 325 m 1018 393 l 840 365 l 761 196 l 682 365 l 504 393 l 632 525 l 603 713 l 761 624 l 919 713 l 889 525 l 1018 393 z "},"P":{"ha":1492,"x_min":68,"x_max":1424,"o":"m 1167 1015 l 1075 739 q 1067 708 1068 722 q 1065 668 1065 693 l 1067 646 l 1000 643 q 899 677 946 643 q 838 763 853 711 l 810 863 l 817 864 q 879 899 854 876 l 1088 1069 q 1153 1103 1129 1103 q 1176 1068 1176 1103 q 1167 1015 1176 1044 m 1375 315 q 1424 253 1424 279 q 1342 218 1424 218 l 1089 225 q 1059 224 1075 225 q 1018 214 1043 224 l 1007 210 l 989 263 q 983 291 985 274 q 982 311 982 308 q 1001 395 982 356 q 1053 460 1019 435 l 1122 511 l 1133 497 l 1160 474 l 1375 315 m 682 863 l 654 763 q 594 678 642 713 q 493 643 546 643 l 425 646 l 428 668 q 427 697 428 681 q 417 739 426 714 l 325 1015 q 315 1069 315 1046 q 339 1103 315 1103 q 404 1069 363 1103 l 613 899 q 642 880 625 889 q 675 864 658 871 l 682 863 m 889 108 l 882 97 l 869 64 l 792 -217 q 746 -286 774 -286 q 700 -217 718 -286 l 622 64 l 610 97 l 603 108 l 647 144 q 746 179 688 179 q 844 144 806 179 l 889 108 m 503 263 l 485 210 l 475 214 q 441 222 460 219 q 404 225 422 225 l 150 218 q 90 228 111 218 q 68 253 68 238 q 117 315 68 279 l 332 474 l 360 497 l 369 511 l 439 460 q 490 395 471 436 q 510 311 510 354 q 503 263 510 282 z "},"Q":{"ha":1528,"x_min":69,"x_max":1458,"o":"m 1458 422 q 1255 -69 1458 135 q 764 -272 1051 -272 q 273 -69 476 -272 q 69 422 69 135 q 273 913 69 710 q 764 1117 476 1117 q 1255 913 1051 1117 q 1458 422 1458 710 m 1236 324 l 1125 432 q 1058 601 1058 499 q 1058 615 1058 608 q 1061 629 1061 625 l 1088 782 q 1089 803 1089 789 q 1046 854 1089 854 q 1004 842 1028 854 l 868 771 q 764 747 824 747 q 660 771 704 747 l 524 842 q 486 854 503 854 q 439 801 439 854 q 440 782 439 789 l 467 629 q 469 600 469 610 q 451 508 469 554 q 403 432 432 461 l 292 324 q 265 274 265 297 q 325 225 265 233 l 476 203 q 574 161 525 196 q 644 81 622 126 l 713 -57 q 764 -101 733 -101 q 815 -57 794 -101 l 883 81 q 954 160 904 124 q 1051 203 1004 197 l 1203 225 q 1263 274 1263 233 q 1236 324 1263 299 z "},"R":{"ha":1528,"x_min":69,"x_max":1458,"o":"m 1458 417 l 764 -278 l 69 417 l 764 1111 l 1458 417 m 1153 307 l 1061 397 q 1021 463 1036 422 q 1006 542 1006 503 q 1007 563 1006 556 l 1029 690 q 1031 707 1031 696 q 994 750 1031 750 q 958 740 978 750 l 844 681 q 758 661 808 661 q 672 681 708 661 l 558 740 q 525 751 543 749 q 486 707 486 751 q 488 690 486 696 l 510 563 q 513 538 513 546 q 497 461 513 500 q 456 397 482 422 l 364 307 q 342 264 342 285 q 390 225 342 232 l 518 207 q 599 171 557 201 q 658 104 640 140 l 715 -11 q 758 -47 733 -47 q 801 -11 785 -47 l 858 104 q 917 170 876 140 q 999 207 958 200 l 1126 225 q 1175 264 1175 232 q 1153 307 1175 285 z "},"S":{"ha":1506,"x_min":68,"x_max":1438,"o":"m 1438 425 l 1433 354 l 1429 331 l 1181 557 l 1246 907 l 1319 815 q 1408 631 1378 729 q 1438 425 1438 533 m 1101 1021 l 753 850 l 403 1021 l 486 1067 q 753 1122 613 1122 q 1019 1067 893 1122 l 1101 1021 m 1372 133 l 1319 36 q 1135 -153 1244 -78 q 890 -257 1025 -229 l 832 -267 l 1018 85 l 1372 133 m 324 557 l 75 331 l 72 354 l 68 425 q 98 631 68 531 q 185 815 128 731 l 260 907 l 324 557 m 674 -267 l 615 -257 q 371 -154 482 -231 q 185 36 260 -78 l 133 133 l 488 85 l 674 -267 z "},"T":{"ha":1600,"x_min":72,"x_max":1528,"o":"m 1464 272 l 1081 178 q 885 40 960 149 q 810 -200 810 -69 q 792 -272 810 -272 q 747 -219 775 -272 l 589 74 q 472 194 547 150 q 311 238 397 238 q 171 204 238 238 l 143 190 q 85 169 101 169 q 72 179 72 169 q 110 235 72 194 l 392 535 q 479 758 479 629 q 396 972 479 885 q 361 1026 361 1008 q 379 1039 361 1039 q 436 1024 397 1039 l 756 893 q 882 869 813 869 q 1062 915 978 869 q 1193 1042 1146 960 l 1207 1065 q 1257 1117 1240 1121 q 1267 1083 1267 1113 q 1263 1044 1267 1068 l 1201 675 q 1197 624 1197 650 q 1269 431 1197 513 q 1456 333 1342 349 l 1461 332 q 1528 306 1528 324 q 1464 272 1528 286 m 1094 367 q 1124 382 1124 374 q 1080 396 1124 390 q 1001 441 1036 401 q 967 536 967 481 q 968 558 967 551 l 997 735 q 1000 757 1000 754 q 996 768 1000 765 q 972 744 988 772 l 965 733 q 901 674 943 696 q 815 651 860 651 q 781 653 792 651 q 757 663 771 656 l 604 725 q 578 732 583 732 q 568 725 568 732 q 585 700 568 717 q 625 597 625 657 q 583 492 625 536 l 449 349 q 431 322 431 331 q 438 318 431 317 q 464 328 446 319 l 478 335 q 544 350 507 350 q 676 272 635 350 l 753 132 q 775 107 765 107 q 783 129 783 107 q 782 142 782 138 q 814 255 776 203 q 911 322 851 307 l 1094 367 z "},"U":{"ha":1528,"x_min":69,"x_max":1458,"o":"m 1458 -275 l 69 -275 l 69 1114 l 1458 1114 l 1458 -275 m 1369 228 l 1126 488 q 1051 679 1051 569 q 1069 778 1051 732 q 1124 863 1086 824 q 1154 910 1154 894 q 1139 921 1154 921 q 1089 907 1121 921 l 814 794 q 706 774 761 774 q 550 813 624 774 q 436 922 476 853 l 425 943 q 382 988 396 992 q 374 961 374 985 q 378 926 374 947 l 429 607 q 433 564 433 583 q 371 397 433 468 q 211 313 308 326 q 150 289 150 304 q 204 261 150 274 l 533 179 q 701 67 633 154 q 768 -122 768 -19 q 767 -146 767 -137 q 782 -208 767 -208 q 821 -162 796 -208 l 957 89 q 1057 192 992 154 q 1196 231 1122 231 q 1317 201 1258 231 l 1340 190 q 1392 172 1375 172 q 1401 181 1401 172 q 1369 228 1401 196 z "},"V":{"ha":1600,"x_min":72,"x_max":1528,"o":"m 1464 267 l 1081 172 q 885 34 960 143 q 810 -206 810 -75 q 792 -278 810 -278 q 747 -225 775 -278 l 589 68 q 472 188 547 144 q 311 232 397 232 q 171 199 238 232 l 143 185 q 85 164 101 164 q 72 174 72 164 q 110 229 72 189 l 392 529 q 479 753 479 624 q 396 967 479 879 q 361 1021 361 1003 q 379 1033 361 1033 q 436 1018 397 1033 l 756 888 q 882 864 813 864 q 1062 909 978 864 q 1193 1036 1146 954 l 1207 1060 q 1257 1111 1240 1115 q 1267 1078 1267 1107 q 1263 1039 1267 1063 l 1201 669 q 1197 618 1197 644 q 1269 426 1197 508 q 1454 328 1342 343 l 1461 326 q 1528 300 1528 318 q 1464 267 1528 281 m 1282 325 q 1326 349 1326 335 q 1279 368 1326 360 q 1143 439 1196 379 q 1090 578 1090 499 q 1093 614 1090 601 l 1136 881 q 1138 899 1138 890 q 1139 913 1139 908 q 1132 932 1139 931 q 1097 894 1121 936 l 1086 878 q 991 788 1053 822 q 863 754 929 754 q 772 771 817 754 l 542 865 q 500 876 513 876 q 488 867 488 876 q 513 828 488 856 q 558 758 543 797 q 574 674 574 718 q 510 514 574 582 l 307 297 q 279 257 279 267 q 294 252 279 250 q 331 265 308 254 l 350 275 q 453 300 400 300 q 567 269 514 300 q 651 182 621 238 l 765 -29 q 797 -67 786 -67 q 811 -15 811 -67 q 810 6 810 -1 q 865 164 810 92 q 1006 257 921 236 l 1282 325 z "},"W":{"ha":1657,"x_min":75,"x_max":1581,"o":"m 1581 22 q 1492 -194 1581 -106 q 1276 -283 1403 -283 l 381 -283 q 165 -194 256 -283 q 75 22 75 -106 l 75 800 q 164 1017 75 928 q 381 1106 253 1106 l 1276 1106 q 1492 1017 1403 1106 q 1581 800 1581 928 l 1581 22 m 1465 568 l 1149 432 l 824 1050 l 850 697 l 181 568 l 514 485 l 426 -214 l 606 89 l 1221 -214 l 997 57 l 1465 568 z "},"X":{"ha":1528,"x_min":69,"x_max":1458,"o":"m 1458 419 q 1255 -72 1458 132 q 764 -275 1051 -275 q 273 -72 476 -275 q 69 419 69 132 q 273 910 69 707 q 764 1114 476 1114 q 1255 910 1051 1114 q 1458 419 1458 707 m 1338 594 l 754 707 l 778 1015 l 493 476 l 218 594 l 625 150 l 432 -85 l 968 178 l 1124 -85 l 1047 522 l 1338 594 z "},"Y":{"ha":1539,"x_min":69,"x_max":1469,"o":"m 1469 244 l 788 86 l 769 -286 l 415 340 l 69 244 l 532 790 l 338 1103 l 976 813 l 1201 1103 l 1135 378 l 1469 244 m 1265 315 l 1031 410 l 1078 919 l 919 715 l 469 919 l 607 699 l 282 315 l 524 383 l 774 -58 l 786 204 l 1265 315 z "},"Z":{"ha":1525,"x_min":69,"x_max":1456,"o":"m 1213 1092 q 1218 1076 1218 1089 q 1206 1018 1218 1058 l 1065 547 q 1060 526 1063 540 q 1058 497 1058 513 q 1121 365 1058 415 l 1129 360 l 1065 378 q 986 433 1015 393 q 957 522 957 474 q 964 565 957 542 l 1039 818 l 1047 851 l 1044 860 l 1161 1038 q 1213 1092 1200 1097 m 956 744 q 904 696 935 713 q 838 679 874 679 q 753 708 793 679 l 550 857 l 521 875 l 513 876 l 386 1044 q 353 1107 353 1090 q 363 1114 353 1115 q 422 1081 378 1113 l 803 800 q 899 768 844 768 q 988 794 949 768 l 956 744 m 1390 271 q 1456 235 1456 250 q 1383 218 1456 218 l 922 213 q 826 183 868 213 q 767 106 785 154 l 763 89 l 760 164 q 802 272 760 226 q 904 317 844 317 l 1150 319 l 1183 322 l 1194 329 l 1390 271 m 589 754 q 619 663 619 714 q 560 542 619 589 l 361 386 q 336 364 344 375 l 331 353 l 144 282 q 82 265 100 265 q 69 272 69 265 q 119 326 69 286 l 493 617 q 543 677 526 642 q 560 756 560 713 q 560 771 560 763 q 554 797 556 789 l 589 754 m 764 -201 q 750 -275 764 -275 q 715 -210 736 -275 l 564 257 q 506 339 547 307 q 417 371 465 371 l 406 369 l 465 392 q 492 400 481 399 q 524 401 504 401 q 601 375 567 401 q 651 303 636 349 l 733 51 q 756 11 749 10 l 764 -201 z "},"a":{"ha":1638,"x_min":75,"x_max":1563,"o":"m 75 -278 l 75 1111 l 1563 1111 l 1563 -278 l 75 -278 m 1122 -140 q 1154 -158 1140 -153 q 1182 -162 1168 -162 q 1204 -126 1204 -162 q 1197 -85 1204 -112 l 1131 128 q 1122 181 1122 153 q 1143 277 1122 231 q 1201 351 1164 324 l 1386 493 q 1426 547 1426 522 q 1357 581 1426 581 l 1135 583 q 1019 623 1074 583 q 943 719 964 663 l 865 940 q 819 996 846 996 q 772 939 792 996 l 701 729 q 627 630 682 671 q 513 589 572 589 l 279 583 q 211 550 211 583 q 251 494 211 525 l 431 363 q 489 287 467 335 q 511 190 511 239 q 511 169 511 185 q 504 139 510 164 l 438 -83 q 431 -124 431 -108 q 460 -162 431 -162 q 514 -139 479 -162 l 694 -10 q 813 25 743 25 q 929 -8 881 25 l 1122 -140 z "},"b":{"ha":1635,"x_min":75,"x_max":1561,"o":"m 458 -261 q 427 -274 439 -269 q 401 -278 415 -278 q 333 -203 333 -278 q 336 -171 333 -193 l 375 51 q 379 93 379 72 q 353 227 379 160 q 282 336 326 294 l 114 494 q 75 568 75 533 q 160 636 75 626 l 394 669 q 536 731 465 681 q 639 846 607 782 l 740 1049 q 818 1111 774 1111 q 894 1049 863 1111 l 996 846 q 1100 731 1029 782 q 1242 669 1171 681 l 1475 636 q 1561 568 1561 625 q 1521 494 1561 535 l 1353 336 q 1282 226 1308 293 q 1256 94 1256 160 q 1260 51 1256 72 l 1299 -171 q 1301 -187 1299 -176 q 1301 -201 1301 -194 q 1238 -278 1301 -278 q 1176 -261 1210 -278 l 968 -153 q 898 -129 935 -136 q 818 -122 861 -122 q 667 -153 728 -122 l 458 -261 m 511 43 q 510 26 510 38 q 553 -25 510 -25 q 589 -14 574 -22 l 721 54 q 818 75 763 75 q 914 54 874 75 l 1046 -14 q 1085 -25 1068 -25 q 1125 25 1125 -25 q 1124 43 1125 36 l 1099 183 q 1097 208 1097 192 q 1114 295 1097 251 q 1158 365 1131 339 l 1264 467 q 1289 514 1289 492 q 1236 557 1289 549 l 1086 578 q 996 617 1040 585 q 931 689 951 649 l 867 818 q 818 857 846 857 q 769 818 790 857 l 704 689 q 638 617 683 650 q 549 578 592 583 l 400 557 q 346 514 346 549 q 371 467 346 492 l 476 365 q 522 296 506 338 q 539 211 539 254 q 536 183 539 203 l 511 43 z "},"c":{"ha":1578,"x_min":72,"x_max":1506,"o":"m 346 -278 l 468 43 l 72 581 l 408 561 l 789 1111 l 874 778 l 1506 581 l 1221 394 l 1232 -278 l 971 -60 l 346 -278 m 793 -43 l 836 125 l 1156 225 l 1011 319 l 1017 661 l 885 550 l 568 661 l 631 499 l 429 225 l 600 236 l 793 -43 z "},"d":{"ha":1543,"x_min":71,"x_max":1474,"o":"m 474 -278 q 345 -233 406 -278 q 265 -125 285 -189 l 79 463 q 71 522 71 492 q 158 711 71 647 l 643 1072 q 772 1111 699 1111 q 900 1072 846 1111 l 1385 711 q 1474 524 1474 644 q 1464 463 1474 490 l 1278 -125 q 1197 -233 1258 -189 q 1069 -278 1136 -278 l 474 -278 m 393 -46 q 390 -71 390 -62 q 446 -132 390 -132 q 492 -117 469 -129 l 646 -35 q 768 -8 694 -8 q 833 -15 800 -8 q 889 -35 867 -22 l 1043 -117 q 1093 -132 1069 -132 q 1144 -71 1144 -132 q 1142 -46 1144 -62 l 1111 133 q 1108 150 1111 139 q 1108 165 1108 157 q 1130 278 1108 222 q 1186 368 1151 333 l 1313 493 q 1344 553 1344 525 q 1274 613 1344 601 l 1103 638 q 988 688 1046 646 q 906 782 931 731 l 828 946 q 768 997 801 997 q 707 946 733 997 l 629 782 q 547 688 604 729 q 432 638 489 646 l 261 613 q 190 554 190 601 q 222 493 190 525 l 349 368 q 405 278 383 333 q 426 167 426 222 q 424 133 426 156 l 393 -46 z "},"e":{"ha":1578,"x_min":72,"x_max":1506,"o":"m 789 -278 l 408 272 l 72 253 l 468 790 l 346 1111 l 971 893 l 1232 1111 l 1221 439 l 1506 253 l 874 56 l 789 -278 m 571 206 l 789 321 l 1006 206 l 965 449 l 1140 621 l 897 656 l 789 876 l 681 656 l 438 621 l 613 449 l 571 206 z "},"f":{"ha":1578,"x_min":72,"x_max":1506,"o":"m 346 -278 l 468 43 l 72 581 l 408 561 l 789 1111 l 874 778 l 1506 581 l 1221 394 l 1232 -278 l 971 -60 l 346 -278 m 571 39 l 789 154 l 1006 39 l 965 282 l 1140 454 l 897 489 l 789 710 l 681 489 l 438 454 l 613 282 l 571 39 z "},"g":{"ha":1557,"x_min":71,"x_max":1486,"o":"m 440 -260 q 385 -278 407 -278 q 315 -201 315 -278 q 318 -172 315 -194 l 356 50 q 358 75 358 67 l 358 90 q 332 226 358 157 q 263 338 306 294 l 110 492 q 71 567 71 531 q 93 613 71 594 q 157 638 115 632 l 365 668 q 508 731 438 679 q 608 847 578 783 l 704 1047 q 778 1111 736 1111 q 851 1047 822 1111 l 949 847 q 1050 731 979 783 q 1190 668 1121 679 l 1399 638 q 1464 612 1442 631 q 1486 567 1486 593 q 1447 492 1486 531 l 1293 338 q 1224 227 1250 294 q 1197 94 1197 160 q 1201 50 1197 71 l 1238 -172 q 1240 -201 1240 -192 q 1178 -278 1240 -278 q 1117 -260 1151 -278 l 928 -158 q 778 -125 867 -125 q 628 -158 690 -125 l 440 -260 m 549 349 q 614 189 549 254 q 774 124 679 124 q 933 189 868 124 q 999 349 999 254 q 933 508 999 443 q 774 574 868 574 q 614 508 679 574 q 549 349 549 443 z "},"h":{"ha":1492,"x_min":68,"x_max":1424,"o":"m 404 -244 q 339 -278 363 -278 q 315 -244 315 -278 q 325 -190 315 -221 l 417 86 q 428 153 428 119 q 402 266 428 213 q 332 351 376 319 l 117 510 q 68 572 68 546 q 90 597 68 588 q 150 607 111 607 l 404 600 q 540 646 478 600 q 622 761 603 692 l 700 1042 q 746 1111 719 1111 q 792 1042 772 1111 l 869 761 q 952 647 888 693 q 1089 600 1017 600 l 1342 607 q 1424 572 1424 607 q 1375 510 1424 546 l 1160 351 q 1090 265 1115 318 q 1064 153 1064 211 q 1075 86 1064 119 l 1167 -190 q 1176 -243 1176 -219 q 1153 -278 1176 -278 q 1088 -244 1129 -278 l 879 -74 q 746 -28 825 -28 q 613 -74 669 -28 l 404 -244 m 524 86 q 518 58 518 71 q 539 43 518 35 q 564 58 549 44 l 672 147 q 742 171 703 171 q 811 147 781 171 l 919 58 q 954 42 940 42 q 967 58 967 42 q 961 86 967 71 l 913 229 q 907 264 907 244 q 921 323 907 293 q 957 368 935 353 l 1069 450 q 1094 482 1094 469 q 1051 501 1094 501 l 919 497 q 849 521 881 497 q 806 582 817 544 l 765 728 q 742 763 757 763 q 718 728 728 763 l 678 582 q 635 521 667 544 q 564 497 603 497 l 432 501 q 389 483 389 501 q 414 450 389 469 l 526 368 q 576 264 576 332 q 571 229 576 244 l 524 86 z "},"i":{"ha":1554,"x_min":71,"x_max":1483,"o":"m 776 -278 l 71 253 l 340 1111 l 1214 1111 l 1483 253 l 776 -278 m 453 121 q 451 101 451 114 q 499 46 451 46 q 539 58 517 49 l 671 131 q 776 154 715 154 q 882 131 838 154 l 1015 58 q 1058 46 1039 46 q 1103 100 1103 46 q 1101 121 1103 114 l 1075 276 q 1072 306 1072 296 q 1092 401 1072 351 q 1140 479 1111 451 l 1249 588 q 1276 640 1276 615 q 1215 690 1276 682 l 1068 713 q 968 757 1018 719 q 897 839 918 794 l 829 979 q 776 1024 808 1024 q 725 979 746 1024 l 657 839 q 585 757 635 794 q 486 713 535 719 l 339 690 q 278 640 278 682 q 306 588 278 615 l 414 479 q 462 400 443 450 q 481 303 481 350 q 479 276 481 285 l 453 121 z "},"j":{"ha":1676,"x_min":76,"x_max":1601,"o":"m 594 -278 q 456 -237 526 -278 q 353 -139 386 -197 l 110 278 q 76 417 76 335 q 110 556 76 497 l 353 972 q 456 1071 386 1031 q 594 1111 526 1111 l 1083 1111 q 1220 1071 1150 1111 q 1324 972 1290 1031 l 1568 556 q 1601 417 1601 497 q 1568 278 1601 335 l 1324 -139 q 1220 -237 1290 -197 q 1083 -278 1150 -278 l 594 -278 m 514 28 q 513 6 513 19 q 561 -50 513 -50 q 603 -36 582 -47 l 740 38 q 850 63 786 63 q 958 38 914 63 l 1097 -36 q 1142 -50 1121 -50 q 1188 6 1188 -50 q 1186 28 1188 19 l 1158 189 q 1156 203 1158 193 q 1156 217 1156 210 q 1175 317 1156 267 q 1226 399 1194 367 l 1339 511 q 1367 565 1367 542 q 1303 618 1367 607 l 1150 640 q 1048 685 1099 647 q 974 771 997 724 l 904 917 q 850 963 881 963 q 796 917 819 963 l 725 771 q 652 685 703 722 q 549 640 601 647 l 396 618 q 333 565 333 607 q 361 511 333 539 l 474 399 q 525 318 507 365 q 543 222 543 271 q 540 189 543 211 l 514 28 z "},"k":{"ha":1557,"x_min":71,"x_max":1486,"o":"m 342 -278 l 425 225 l 71 581 l 560 654 l 778 1111 l 997 654 l 1486 581 l 1132 225 l 1215 -278 l 778 -40 l 342 -278 m 775 67 l 860 244 l 1050 274 l 913 413 l 944 608 l 775 515 l 604 608 l 636 413 l 499 274 l 689 244 l 775 67 z "},"l":{"ha":1528,"x_min":69,"x_max":1458,"o":"m 1458 417 q 1255 -74 1458 129 q 764 -278 1051 -278 q 273 -74 476 -278 q 69 417 69 129 q 273 908 69 704 q 764 1111 476 1111 q 1255 908 1051 1111 q 1458 417 1458 704 m 440 57 q 439 38 439 50 q 486 -15 439 -15 q 524 -3 503 -15 l 660 68 q 764 90 703 90 q 868 68 825 90 l 1004 -3 q 1046 -15 1028 -15 q 1089 36 1089 -15 q 1088 57 1089 50 l 1061 210 q 1058 224 1061 214 q 1058 238 1058 231 q 1125 407 1058 340 l 1236 515 q 1263 565 1263 540 q 1203 614 1263 606 l 1051 636 q 954 678 1004 642 q 883 758 904 715 l 815 896 q 764 939 794 939 q 713 896 733 939 l 644 758 q 574 678 622 713 q 476 636 525 643 l 325 614 q 265 565 265 606 q 292 515 265 542 l 403 407 q 451 331 432 378 q 469 239 469 285 q 467 210 469 229 l 440 57 m 913 410 q 869 304 913 347 q 764 261 826 261 q 658 304 701 261 q 615 410 615 347 q 658 517 615 474 q 764 560 701 560 q 869 516 825 560 q 913 410 913 472 z "},"m":{"ha":1635,"x_min":75,"x_max":1561,"o":"m 458 -261 q 427 -274 439 -269 q 401 -278 415 -278 q 333 -203 333 -278 q 336 -171 333 -193 l 375 51 q 379 93 379 72 q 353 227 379 160 q 282 336 326 294 l 114 494 q 75 568 75 533 q 160 636 75 626 l 394 669 q 536 731 465 681 q 639 846 607 782 l 740 1049 q 818 1111 774 1111 q 894 1049 863 1111 l 996 846 q 1100 731 1029 782 q 1242 669 1171 681 l 1475 636 q 1561 568 1561 625 q 1521 494 1561 535 l 1353 336 q 1282 226 1308 293 q 1256 94 1256 160 q 1260 51 1256 72 l 1299 -171 q 1301 -187 1299 -176 q 1301 -201 1301 -194 q 1238 -278 1301 -278 q 1176 -261 1210 -278 l 968 -153 q 898 -129 935 -136 q 818 -122 861 -122 q 667 -153 728 -122 l 458 -261 m 511 43 q 510 26 510 38 q 553 -25 510 -25 q 589 -14 574 -22 l 721 54 q 818 75 763 75 q 914 54 874 75 l 1046 -14 q 1085 -25 1068 -25 q 1125 25 1125 -25 q 1124 43 1125 36 l 1099 183 q 1097 208 1097 192 q 1114 295 1097 251 q 1158 365 1131 339 l 1264 467 q 1289 514 1289 492 q 1236 557 1289 549 l 1086 578 q 996 617 1040 585 q 931 689 951 649 l 867 818 q 818 857 846 857 q 769 818 790 857 l 704 689 q 638 617 683 650 q 549 578 592 583 l 400 557 q 346 514 346 549 q 371 467 346 492 l 476 365 q 522 296 506 338 q 539 211 539 254 q 536 183 539 203 l 511 43 m 613 129 l 651 336 l 486 485 l 715 514 l 818 704 l 919 514 l 1149 485 l 983 336 l 1022 129 l 818 226 l 613 129 z "},"n":{"ha":1722,"x_min":78,"x_max":1644,"o":"m 369 -278 q 163 -193 247 -278 q 78 13 78 -108 l 78 821 q 163 1026 78 940 q 369 1111 249 1111 l 1354 1111 q 1560 1026 1475 1111 q 1644 821 1644 942 l 1644 13 q 1560 -193 1644 -108 q 1354 -278 1475 -278 l 369 -278 m 1182 -172 q 1244 -196 1219 -199 q 1269 -158 1269 -192 q 1261 -114 1269 -142 l 1190 111 q 1182 167 1182 139 q 1205 269 1182 219 q 1265 347 1228 318 l 1461 497 q 1503 556 1503 531 q 1484 581 1503 572 q 1431 590 1465 590 l 1196 593 q 1074 636 1133 593 q 993 738 1014 679 l 911 969 q 861 1029 890 1029 q 813 969 833 1029 l 738 747 q 660 642 717 685 q 538 599 603 599 l 292 593 q 219 557 219 593 q 261 499 219 531 l 450 360 q 514 281 492 329 q 536 178 536 232 q 535 156 536 176 q 529 124 533 136 l 458 -112 q 451 -156 451 -140 q 481 -194 451 -194 q 539 -169 503 -194 l 731 -33 q 854 3 783 3 q 979 -32 928 3 l 1182 -172 z "},"o":{"ha":1517,"x_min":69,"x_max":1449,"o":"m 332 -278 l 414 225 l 69 581 l 546 654 l 758 1111 l 972 654 l 1449 581 l 1103 225 l 1185 -278 l 758 -40 l 332 -278 m 464 -83 l 761 82 l 1058 -83 l 1001 267 l 1242 514 l 910 565 l 761 885 l 613 565 l 281 514 l 521 267 l 464 -83 m 603 126 l 632 314 l 504 446 l 682 474 l 761 643 l 840 474 l 1018 446 l 889 314 l 919 126 l 761 215 l 603 126 z "},"p":{"ha":1492,"x_min":68,"x_max":1424,"o":"m 404 -244 q 339 -278 363 -278 q 315 -244 315 -278 q 325 -190 315 -221 l 417 86 q 427 127 426 111 q 428 157 428 143 l 425 179 l 493 182 q 594 147 546 182 q 654 63 642 113 l 682 -37 l 675 -39 q 642 -55 658 -46 q 613 -74 625 -64 l 404 -244 m 1167 -190 q 1176 -243 1176 -219 q 1153 -278 1176 -278 q 1088 -244 1129 -278 l 879 -74 q 817 -39 854 -51 l 810 -37 l 838 63 q 899 148 853 114 q 1000 182 946 182 l 1067 179 l 1065 157 q 1067 117 1065 132 q 1075 86 1068 103 l 1167 -190 m 369 314 l 360 328 l 332 351 l 117 510 q 68 572 68 546 q 90 597 68 588 q 150 607 111 607 l 404 600 q 441 603 422 600 q 475 611 460 606 l 485 615 l 503 563 q 510 514 510 543 q 490 430 510 471 q 439 365 471 389 l 369 314 m 1122 314 l 1053 365 q 1001 430 1019 390 q 982 514 982 469 q 983 534 982 517 q 989 563 985 551 l 1007 615 l 1018 611 q 1059 601 1043 601 q 1089 600 1075 600 l 1342 607 q 1424 572 1424 607 q 1375 510 1424 546 l 1160 351 l 1133 328 l 1122 314 m 844 681 q 746 646 806 646 q 647 681 688 646 l 603 717 l 610 728 l 622 761 l 700 1042 q 746 1111 719 1111 q 792 1042 772 1111 l 869 761 l 882 728 l 889 717 l 844 681 z "},"q":{"ha":1528,"x_min":69,"x_max":1458,"o":"m 1458 417 q 1255 -74 1458 129 q 764 -278 1051 -278 q 273 -74 476 -278 q 69 417 69 129 q 273 908 69 704 q 764 1111 476 1111 q 1255 908 1051 1111 q 1458 417 1458 704 m 440 57 q 439 38 439 50 q 486 -15 439 -15 q 524 -3 503 -15 l 660 68 q 764 90 703 90 q 868 68 825 90 l 1004 -3 q 1046 -15 1028 -15 q 1089 36 1089 -15 q 1088 57 1089 50 l 1061 210 q 1058 224 1061 214 q 1058 238 1058 231 q 1125 407 1058 340 l 1236 515 q 1263 565 1263 540 q 1203 614 1263 606 l 1051 636 q 954 678 1004 642 q 883 758 904 715 l 815 896 q 764 939 794 939 q 713 896 733 939 l 644 758 q 574 678 622 713 q 476 636 525 643 l 325 614 q 265 565 265 606 q 292 515 265 542 l 403 407 q 451 331 432 378 q 469 239 469 285 q 467 210 469 229 l 440 57 z "},"r":{"ha":1528,"x_min":69,"x_max":1458,"o":"m 764 -278 l 69 417 l 764 1111 l 1458 417 l 764 -278 m 488 143 q 486 126 486 138 q 525 82 486 82 q 558 93 543 85 l 672 153 q 758 171 707 171 q 844 153 810 171 l 958 93 q 994 83 978 83 q 1031 126 1031 83 q 1029 143 1031 138 l 1007 271 q 1006 292 1006 278 q 1021 371 1006 331 q 1061 436 1036 411 l 1153 526 q 1175 569 1175 549 q 1126 608 1175 601 l 999 626 q 917 663 958 633 q 858 729 876 693 l 801 844 q 758 881 785 881 q 715 844 735 881 l 658 729 q 599 663 640 693 q 518 626 557 632 l 390 608 q 342 569 342 601 q 364 526 342 549 l 456 436 q 497 372 482 411 q 513 296 513 333 q 510 271 513 288 l 488 143 z "},"s":{"ha":1506,"x_min":68,"x_max":1438,"o":"m 1019 -222 q 753 -278 893 -278 q 486 -222 613 -278 l 403 -176 l 753 -6 l 1101 -176 l 1019 -222 m 1246 -62 l 1181 288 l 1429 514 l 1433 490 l 1438 419 q 1408 213 1438 311 q 1319 29 1378 115 l 1246 -62 m 260 -62 l 185 29 q 98 214 128 114 q 68 419 68 314 l 72 490 l 75 514 l 324 288 l 260 -62 m 1372 711 l 1018 760 l 832 1111 l 890 1101 q 1135 998 1025 1074 q 1319 808 1244 922 l 1372 711 m 133 711 l 185 808 q 371 999 260 922 q 615 1101 482 1075 l 674 1111 l 488 760 l 133 711 z "},"t":{"ha":1600,"x_min":72,"x_max":1528,"o":"m 1263 -206 q 1267 -244 1267 -229 q 1257 -278 1267 -274 q 1207 -226 1240 -282 l 1193 -203 q 1062 -76 1146 -121 q 882 -31 978 -31 q 756 -54 813 -31 l 436 -185 q 379 -200 397 -200 q 361 -187 361 -200 q 396 -133 361 -169 q 479 81 479 -46 q 392 304 479 210 l 110 604 q 72 660 72 644 q 85 669 72 669 q 143 649 101 669 l 171 635 q 311 601 238 601 q 472 645 397 601 q 589 765 547 689 l 747 1058 q 792 1111 775 1111 q 810 1039 810 1111 q 885 799 810 908 q 1081 661 960 690 l 1464 567 q 1528 533 1528 553 q 1461 507 1528 515 l 1456 506 q 1269 408 1342 490 q 1197 215 1197 326 q 1201 164 1197 189 l 1263 -206 m 972 94 q 996 71 988 67 q 1000 82 1000 74 q 997 104 1000 85 l 968 281 q 967 303 967 288 q 1001 398 967 358 q 1080 443 1036 438 q 1124 457 1124 449 q 1094 472 1124 465 l 911 517 q 814 584 851 532 q 782 697 776 636 q 783 710 782 701 q 775 732 783 732 q 753 707 765 732 l 676 567 q 544 489 635 489 q 478 504 507 489 l 464 511 q 438 521 446 519 q 431 517 431 522 q 449 490 431 508 l 583 347 q 625 242 625 303 q 585 139 625 182 q 568 114 568 122 q 578 107 568 107 q 604 114 583 107 l 757 176 q 781 185 771 183 q 815 188 792 188 q 901 165 860 188 q 965 106 943 143 l 972 94 z "},"u":{"ha":1528,"x_min":69,"x_max":1458,"o":"m 69 -278 l 69 1111 l 1458 1111 l 1458 -278 l 69 -278 m 378 -90 q 374 -125 374 -111 q 382 -151 374 -149 q 425 -107 396 -156 l 436 -86 q 550 23 476 -17 q 706 63 624 63 q 814 42 761 63 l 1089 -71 q 1139 -85 1121 -85 q 1154 -74 1154 -85 q 1124 -26 1154 -58 q 1069 58 1086 13 q 1051 157 1051 104 q 1126 349 1051 267 l 1369 608 q 1401 656 1401 640 q 1392 664 1401 664 q 1340 646 1375 664 l 1317 635 q 1196 606 1258 606 q 1057 644 1122 606 q 957 747 992 682 l 821 999 q 782 1044 796 1044 q 767 982 767 1044 q 768 958 767 974 q 701 769 768 856 q 533 657 633 682 l 204 575 q 150 547 150 563 q 211 524 150 532 q 371 439 308 510 q 433 272 433 368 q 429 229 433 253 l 378 -90 z "},"v":{"ha":1600,"x_min":72,"x_max":1528,"o":"m 1207 -226 l 1193 -203 q 1062 -77 1147 -124 q 881 -31 976 -31 q 817 -36 850 -31 q 756 -54 785 -42 l 436 -185 q 379 -200 397 -200 q 360 -187 360 -200 q 396 -133 360 -169 q 479 81 479 -46 q 392 304 479 210 l 110 604 q 72 660 72 644 q 85 669 72 669 q 143 649 103 669 l 171 635 q 313 601 238 601 q 472 645 397 601 q 589 765 547 689 l 747 1058 q 792 1111 775 1111 q 810 1039 810 1111 q 885 800 810 910 q 1081 661 961 690 l 1464 567 q 1513 551 1497 560 q 1528 533 1528 542 q 1461 507 1528 515 l 1454 506 q 1270 408 1343 492 q 1197 214 1197 324 q 1201 164 1197 189 l 1263 -206 q 1267 -247 1267 -231 q 1257 -278 1267 -272 q 1207 -226 1240 -282 m 1136 -47 l 1093 219 q 1090 240 1090 229 q 1090 257 1090 251 q 1142 395 1090 336 q 1260 464 1193 454 q 1326 486 1326 474 q 1282 508 1326 497 l 1006 576 q 867 670 924 597 q 810 828 810 743 q 811 849 811 842 q 797 900 811 900 q 765 863 786 900 l 651 651 q 567 565 621 596 q 451 533 514 533 q 350 558 399 533 l 331 568 q 288 583 300 583 q 281 570 276 583 q 307 536 286 557 l 510 319 q 556 244 539 288 q 574 158 574 200 q 513 6 574 69 q 488 -33 488 -22 q 501 -43 488 -43 q 542 -32 513 -43 l 772 63 q 863 79 811 79 q 991 47 931 79 q 1086 -44 1051 14 l 1097 -61 q 1132 -99 1121 -103 q 1139 -76 1139 -97 q 1136 -47 1139 -60 z "},"w":{"ha":1657,"x_min":75,"x_max":1581,"o":"m 381 -278 q 164 -189 253 -278 q 75 28 75 -100 l 75 806 q 165 1022 75 933 q 381 1111 256 1111 l 1276 1111 q 1492 1022 1403 1111 q 1581 806 1581 933 l 1581 28 q 1492 -189 1581 -100 q 1276 -278 1403 -278 l 381 -278 m 824 -222 l 1149 396 l 1465 260 l 997 771 l 1221 1042 l 606 739 l 426 1042 l 514 343 l 181 260 l 850 131 l 824 -222 z "},"x":{"ha":1528,"x_min":69,"x_max":1458,"o":"m 1458 417 q 1255 -74 1458 129 q 764 -278 1051 -278 q 273 -74 476 -278 q 69 417 69 129 q 273 908 69 704 q 764 1111 476 1111 q 1255 908 1051 1111 q 1458 417 1458 704 m 778 -179 l 754 129 l 1338 242 l 1047 314 l 1124 921 l 968 658 l 432 921 l 625 686 l 218 242 l 493 360 l 778 -179 z "},"y":{"ha":1539,"x_min":69,"x_max":1469,"o":"m 338 -278 l 532 35 l 69 581 l 415 485 l 769 1111 l 788 739 l 1469 581 l 1135 447 l 1201 -278 l 976 13 l 338 -278 m 469 -94 l 919 110 l 1078 -94 l 1031 415 l 1265 510 l 786 621 l 774 883 l 524 442 l 282 510 l 607 126 l 469 -94 z "},"z":{"ha":1525,"x_min":69,"x_max":1456,"o":"m 422 -244 q 363 -278 378 -276 q 353 -271 353 -279 q 386 -208 353 -254 l 513 -40 l 521 -39 l 550 -21 l 753 128 q 838 157 793 157 q 904 140 874 157 q 956 92 935 124 l 988 42 q 899 68 949 68 q 803 36 844 68 l 422 -244 m 1206 -182 q 1218 -240 1218 -222 q 1213 -256 1218 -253 q 1161 -201 1200 -261 l 1044 -24 l 1047 -15 l 1039 18 l 964 271 q 957 314 957 294 q 986 403 957 363 q 1065 458 1015 443 l 1129 476 l 1121 471 q 1058 339 1058 421 q 1060 310 1058 324 q 1065 289 1063 296 l 1206 -182 m 554 39 q 560 65 556 47 q 560 81 560 72 q 543 159 560 124 q 493 219 526 194 l 119 510 q 69 564 69 550 q 82 571 69 571 q 144 554 100 571 l 331 483 l 336 472 q 361 450 344 461 l 560 294 q 619 174 619 247 q 589 82 619 122 l 554 39 m 651 533 q 601 461 636 488 q 524 435 567 435 q 492 437 504 435 q 465 444 481 439 l 406 467 l 417 465 q 506 497 465 465 q 564 579 547 529 l 715 1046 q 750 1111 736 1111 q 764 1038 764 1111 l 756 825 q 733 785 749 826 l 651 533 m 1194 507 l 1183 514 l 1150 517 l 904 519 q 802 565 844 519 q 760 672 760 610 l 763 747 l 767 731 q 826 653 785 682 q 922 624 868 624 l 1383 618 q 1456 601 1456 618 q 1390 565 1456 586 l 1194 507 z "}}}
